# xmcd CD database file
#
# Track frame offsets:
#	150
#	17747
#	36025
#	54817
#	73257
#	89452
#	108122
#	126590
#	143620
#
# Disc length: 2132 seconds
#
# Revision: 0
# Processed by: cddbd v1.5.1PL0 Copyright (c) Steve Scherf et al.
# Submitted via: CDex 1.51
#
DISCID=75085209
DTITLE=Rooster - Buick Regal
DYEAR=1998
DGENRE=Country
TTITLE0=Bubba Cummins (Sex Isn't Dirty)
TTITLE1=Train I Ride
TTITLE2=Sugarmoms
TTITLE3=Virgin Megastore
TTITLE4=See Through Top
TTITLE5=Summertime
TTITLE6=Kissing Cousins
TTITLE7=Mu Ma Yeah
TTITLE8=Donut Holes
EXTD=YEAR: 1998
EXTT0=
EXTT1=
EXTT2=
EXTT3=
EXTT4=
EXTT5=
EXTT6=
EXTT7=
EXTT8=
PLAYORDER=
